<svg width="1000" height="1000" xmlns="http://www.w3.org/2000/svg" fill="#92bc2c">

 <g>
  <title>Layer 1</title>
  <rect id="svg_1" fill="#92BC2C" height="100%" width="100%"/>
  <path id="svg_2" fill-rule="evenodd" fill="#fff" d="m586.09551,244.50528c0.373,-0.53172 1.105,-0.66094 1.637,-0.28863l36.354,25.45555c0.532,0.3723 0.661,1.1051 0.289,1.6368l-50.599,72.2623c24.599,7.8587 41.358,16.3357 41.358,16.3357s-40.964,70.462 -110.443,70.462s-118.85,-65.672 -118.85,-65.672s17.506,-11.172 43.456,-20.7539l-55.5,-66.1415c-0.417,-0.4973 -0.352,-1.2386 0.145,-1.6558l33.997,-28.52715c0.498,-0.41723 1.239,-0.35238 1.656,0.14487l70.272,83.74688c6.017,-0.6806 12.147,-1.061 18.333,-1.061c8.891,0 17.771,0.6759 26.44,1.8229l61.455,-87.76702zm13.746,189.20072c18.541,-13.242 46.597,-47.804 46.597,-47.804s71.664,56.79 71.664,177.206c0,120.415 -123.896,192.888 -123.896,192.888s-59.195,-59.781 -73.727,-135.562c-14.531,-75.781 21.496,-159.927 21.496,-159.927s39.324,-13.559 57.866,-26.801zm-199.683,0c-18.541,-13.242 -46.597,-47.804 -46.597,-47.804s-71.664,56.79 -71.664,177.206c0,120.415 123.896,192.888 123.896,192.888s59.195,-59.781 73.727,-135.562c14.531,-75.781 -21.496,-159.927 -21.496,-159.927s-39.324,-13.559 -57.866,-26.801z" clip-rule="evenodd"/>
 </g>
</svg>