<svg width="1000" height="1000" xmlns="http://www.w3.org/2000/svg" fill="none">

 <g>
  <title>Layer 1</title>
  <rect id="svg_1" fill="#0C69C8" height="100%" width="100%"/>
  <path id="svg_2" fill="#fff" d="m524.838,498.881c3.47,-2.116 6.414,-6.55 8.788,-11.478c31.245,12.77 53.202,42.946 53.202,78.137c0,46.75 -38.75,84.649 -86.55,84.649c-19.622,0 -37.719,-6.387 -52.236,-17.15c-4.762,-2.255 -8.68,-4.421 -11.886,-6.194c-4.973,-2.749 -8.234,-4.552 -10.276,-4.27c-5.969,0.823 -4.236,6.315 -2.661,11.304c1.069,3.389 2.066,6.546 0.523,7.848c-1.614,1.364 -6.842,-3.621 -12.951,-9.445c-8.316,-7.929 -18.264,-17.414 -22.955,-14.565c-3.709,2.253 -0.108,8.364 4.3,15.844l0.327,0.555c1.862,3.162 4.02,6.382 5.989,9.32c4.003,5.971 7.227,10.783 5.614,11.597c-1.95,0.984 -15.536,-8.186 -26.985,-20.917c-4.419,-4.913 -8.699,-10.239 -12.677,-15.188l0,-0.001c-8.707,-10.834 -15.961,-19.859 -20.033,-18.79c-4.8985,1.286 -1.1929,11.39 4.252,21.113c2.546,4.547 5.541,9.177 8.134,13.186l0,0.001c4.033,6.234 7.094,10.965 5.984,11.547c-1.498,0.783 -14.679,-12.07 -23.6316,-28.267c-5.3175,-9.621 -9.7825,-20.253 -13.3973,-28.86c-3.9201,-9.335 -6.8402,-16.288 -8.763,-16.988c-6.6806,-2.431 -6.6806,11.19 -4.0012,30.849c0.3495,2.565 0.87,5.255 1.5109,7.994c25.9842,84.073 105.8052,145.288 200.2442,145.288c115.517,0 209.161,-91.588 209.161,-204.568c0,-107.532 -84.829,-195.685 -192.608,-203.938c0.136,-5.0656 2.78,-15.111 2.78,-15.111c0,0 19.027,-46.0358 20.033,-55.8731c0.066,-0.6529 0.145,-1.3624 0.23,-2.118c1.185,-10.629 3.39,-30.3919 -13.612,-30.3919c-9.08,0 -13.302,6.75464 -18.131,14.4799l0,0.0001c-1.854,2.9657 -3.798,6.0745 -6.14,8.999c-16.868,21.0646 -45.232,47.3698 -61.315,61.3841c-33.994,29.6209 -67.346,53.9649 -86.798,68.1629l0,0l-0.001,0.001c-8.847,6.457 -14.818,10.816 -16.666,12.617c-13.926,13.576 -63.8582,103.642 -63.8582,103.642c0,0 -16.1475,28.896 -10.408,34.757c5.7395,5.86 19.5803,4.517 19.5803,4.517c0,0 185.9409,-42.657 202.5879,-46.021c4.482,-0.906 7.646,-1.429 10.075,-1.83c6.595,-1.089 7.779,-1.285 15.225,-5.828zm-131.467,-54.817c-9.981,9.487 -26.534,32.132 -26.534,32.132c0,0 30.764,1.895 47.707,-14.21c16.944,-16.106 13.062,-43.553 13.062,-43.553c0,0 -24.255,16.144 -34.235,25.631z" clip-rule="evenodd" fill-rule="evenodd"/>
 </g>
</svg>