<svg width="1000" height="1000" xmlns="http://www.w3.org/2000/svg" fill="none">

 <g>
  <title>Layer 1</title>
  <rect id="svg_1" fill="#F2D94E" height="100%" width="100%"/>
  <path id="svg_2" fill="#fff" d="m396.41791,245.43913c-0.099,-0.2857 0.114,-0.58366 0.416,-0.58366l179.829,0c0.193,0 0.364,0.12559 0.421,0.30978l82.598,266.86122c0.087,0.283 -0.124,0.57 -0.421,0.57l-119.719,0c-0.146,0 -0.251,0.139 -0.211,0.28l68.662,241.705c0.134,0.469 -0.481,0.775 -0.774,0.385l-266.8315,-354.844c-0.218,-0.29 -0.0111,-0.704 0.3515,-0.704l108.655,0c0.151,0 0.257,-0.149 0.207,-0.292l-53.183,-153.68734z" clip-rule="evenodd" fill-rule="evenodd"/>
 </g>
</svg>