<svg width="1000" height="1000" xmlns="http://www.w3.org/2000/svg" fill="none">

 <g>
  <title>Layer 1</title>
  <rect id="svg_1" fill="#D3425F" height="100%" width="100%"/>
  <path id="svg_2" fill="#fff" d="m332.3001,286.5656c6.1963,-24.4642 28.3594,-42.5656 54.7494,-42.5656c19.795,0 37.212,10.1847 47.296,25.6l16.513,0c10.259,-10.5284 24.592,-17.06667 40.453,-17.06667c23.254,0 43.226,14.05487 51.884,34.13337l13.825,0c8.663,-5.4082 18.899,-8.5334 29.864,-8.5334c23.255,0 43.226,14.0549 51.884,34.1334l37.595,0c0.321,0 0.622,0.0865 0.881,0.2374c1.717,-0.1571 3.456,-0.2374 5.213,-0.2374c31.191,0 56.475,25.2847 56.475,56.4753l0,169.344l0.001,0.314l-0.001,0.314l0,2.439c0,1.033 -0.028,2.062 -0.084,3.086c-3.398,117.478 -109.033,211.761 -238.849,211.761c-131.959,0 -238.933,-97.423 -238.933,-217.6c0,-58.009 24.9249,-110.717 65.5535,-149.725c-0.1013,56.553 0.8539,115.019 5.2572,114.016c11.7904,-2.688 2.5784,-177.8515 0.4229,-216.1254z" clip-rule="evenodd" fill-rule="evenodd"/>
 </g>
</svg>