<svg width="1000" height="1000" xmlns="http://www.w3.org/2000/svg" fill="none">

 <g>
  <title>Layer 1</title>
  <rect id="svg_1" fill="#FBA54C" height="100%" width="100%"/>
  <path id="svg_2" fill="#fff" d="m596.42897,639.39411c6.326,-23.131 -5.953,-70.684 -5.953,-70.684c0,0 -8.906,38.739 -22.822,53.057c-11.872,12.213 -26.417,20.684 -47.277,22.91c17.055,-8.284 28.784,-25.557 28.784,-45.522c0,-28.026 -23.112,-50.746 -51.622,-50.746c-28.51,0 -51.623,22.72 -51.623,50.746c0,7.654 1.725,14.913 4.812,21.421c-17.832,-14.206 -20.636,-36.982 -20.636,-36.982c0,0 -19.912,82.67 34.954,121.558c54.865,38.888 162.344,5.462 162.344,5.462c0,0 -153.809,108.223 -267.783,-9.564c-98.1792,-101.466 -25.6249,-235.047 -25.6249,-235.047c0,0 -3.1334,12.392 -3.1334,26.777c0,14.385 7.7993,25.33 7.7993,25.33c0,0 23.265,-49.039 41.371,-68.982c17.136,-18.874 38.617,-34.182 57.171,-47.404c14.282,-10.178 26.83,-19.12 34.324,-27.501c41.277,-46.1543 15.968,-130.223 15.968,-130.223c0,0 46.53,41.02 59.52,93.9978c4.952,20.1942 1.766,43.1712 -1.082,63.7182c-4.624,33.356 -8.361,60.309 25.044,58.56c53.982,-2.827 7.073,-86.053 7.073,-86.053c0,0 122.452,64.36 113.304,176.922c-9.149,112.562 -133.846,138.152 -133.846,138.152c0,0 32.607,-26.772 38.934,-49.903z" clip-rule="evenodd" fill-rule="evenodd"/>
 </g>
</svg>