<svg width="1000" height="1000" xmlns="http://www.w3.org/2000/svg" fill="none">

 <g>
  <title>Layer 1</title>
  <rect id="svg_1" fill="#A1BBEC" height="100%" width="100%"/>
  <path id="svg_2" fill="#fff" d="m422.7125,721.8665c75.003,0 139.215,-41.685 165.724,-100.777c0.324,-0.721 -106.429,27.743 -103.025,17.681c1.52,-4.493 66.96,-28.399 114.637,-56.283c27.403,-16.027 40.022,-49.954 40.022,-49.954c0,0 -46.167,22.415 -69.506,28.101c-47.032,11.46 -88.433,10.226 -88.433,9.032c0,-2.582 68.745,-15.644 164.293,-73.869c44.943,-27.387 57.15,-74.561 57.15,-74.561c0,0 -49.411,29.432 -79.281,39.149c-70.836,23.043 -135.478,29.987 -135.478,26.869c0,-6.676 56.887,-22.319 117.201,-51.544c31.36,-15.195 58.519,-35.047 89.992,-57.124c51.498,-36.121 59.991,-100.453 59.991,-100.453c0,0 -50.792,32.7601 -75.579,43.6394c-102.279,44.8916 -192.591,68.4396 -257.708,73.5376c-98.296,7.696 -178.712,76.279 -178.712,165.324c0,89.046 80.0119,161.232 178.712,161.232z" clip-rule="evenodd" fill-rule="evenodd"/>
 </g>
</svg>