<svg width="1000" height="1000" xmlns="http://www.w3.org/2000/svg" fill="none">

 <g>
  <title>Layer 1</title>
  <rect id="svg_1" fill="#B763CF" height="100%" width="100%"/>
  <path id="svg_2" fill="#fff" d="m671.821,637.449c51.703,-41.341 84.179,-101.073 84.179,-167.499c0,-124.789 -114.615,-225.95 -256,-225.95c-141.385,0 -256,101.161 -256,225.95c0,64.028 30.1737,121.836 78.6553,162.951c-2.9382,10.145 -4.5501,21.18 -4.5501,32.719c0,49.915 30.1618,90.38 67.3688,90.38c24.176,0 45.378,-17.085 57.263,-42.746c11.885,25.661 33.087,42.746 57.263,42.746c22.038,0 41.604,-14.196 53.895,-36.143c12.291,21.947 31.857,36.143 53.894,36.143c37.207,0 67.369,-40.465 67.369,-90.38c0,-9.836 -1.172,-19.306 -3.337,-28.171zm-23.61,-163.018c0,63.354 -67.865,114.713 -151.579,114.713c-83.715,0 -151.579,-51.359 -151.579,-114.713c0,-63.354 67.864,-114.713 151.579,-114.713c83.714,0 151.579,51.359 151.579,114.713z" clip-rule="evenodd" fill-rule="evenodd"/>
 </g>
</svg>