<svg width="1000" height="1000" xmlns="http://www.w3.org/2000/svg" fill="none">

 <g>
  <title>Layer 1</title>
  <rect id="svg_1" fill="#595761" height="100%" width="100%"/>
  <path id="svg_2" fill="#fff" d="m473.72287,696.85c9.727,1.489 19.689,2.261 29.833,2.261c108.002,0 195.555,-87.553 195.555,-195.555c0,-108.003 -87.553,-195.556 -195.555,-195.556c-7.246,0 -14.401,0.3941 -21.442,1.1621c53.575,40.5889 88.997,110.8999 88.997,190.8379c0,84.04 -39.151,157.44 -97.388,196.85zm26.277,59.15c141.385,0 256,-114.615 256,-256c0,-141.385 -114.615,-256 -256,-256c-141.385,0 -255.99975,114.615 -255.99975,256c0,141.385 114.61475,256 255.99975,256z" clip-rule="evenodd" fill-rule="evenodd"/>
 </g>
</svg>