<svg width="1000" height="1000" xmlns="http://www.w3.org/2000/svg" fill="none">

 <g>
  <title>Layer 1</title>
  <rect id="svg_1" fill="#5FBD58" height="100%" width="100%"/>
  <path id="svg_2" fill-rule="evenodd" fill="#fff" d="m345.13192,683.62337c-1.7574,-1.653 -3.4954,-3.338 -5.2132,-5.056c-90.68455,-90.684 -90.68453,-237.713 0,-328.397c90.6841,-90.6849 379.6401,-96.7516 379.6401,-96.7516s39.442,334.4646 -51.242,425.1486c-80.54,80.54 -205.522,89.55 -296.005,27.031l72.908,-89.471l116.55,-25.163l-95.139,-9.511l60.462,-61.562l68.824,-15.077l-54.422,-16.117l54.422,-98.176l-77.41,86.828l-29.893,-42.183l10.523,69.648l-53.917,60.782l-24.993,-76.9l0,102.268l-75.0949,92.659z" clip-rule="evenodd"/>
 </g>
</svg>