<svg width="1000" height="1000" xmlns="http://www.w3.org/2000/svg" fill="none">

 <g>
  <title>Layer 1</title>
  <rect id="svg_1" fill="#DA7C4D" height="100%" width="100%"/>
  <path id="svg_2" fill="#fff" d="m356.76493,684.1545c-0.139,0 -0.236,-0.137 -0.19,-0.268l130.715,-369.352c0.029,-0.0803 0.105,-0.134 0.19,-0.134l139.542,0c0.085,0 0.162,0.0541 0.19,0.1349l128.776,369.3521c0.045,0.131 -0.052,0.267 -0.19,0.267l-395.105,0l-3.928,0zm-112.56269,1.445c-0.1404,0 -0.2376,-0.14 -0.18835,-0.271l97.33964,-259.872c0.0295,-0.079 0.1045,-0.131 0.1884,-0.131l84.577,0c0.14,0 0.237,0.139 0.189,0.27l-94.1247,259.872c-0.0288,0.079 -0.1044,0.132 -0.1891,0.132l-87.79189,0z" clip-rule="evenodd" fill-rule="evenodd"/>
 </g>
</svg>