<svg width="1000" height="1000" xmlns="http://www.w3.org/2000/svg" fill="none">

 <g>
  <title>Layer 1</title>
  <rect id="svg_1" fill="#FA8581" height="100%" width="100%"/>
  <path id="svg_2" fill="#fff" d="m700.21049,669.21174c0,0 -64.56,51.779 -193.032,30.352c-97.47,-16.257 -149.456,-123.703 -149.456,-181.457c0,-136.93 101.346,-168.091 169.863,-168.091c68.516,0 113.213,66.8 113.213,118.52c0,51.72 -36.58,96.958 -93.507,96.958c-56.926,0 -73.786,-39.965 -73.786,-76.708c0,-36.742 29.727,-49.687 56.838,-49.687c27.111,0 36.394,23.146 36.394,43.039c0,19.894 -15.435,27.018 -28.309,27.018c-12.874,0 -14.147,-6.495 -19.074,-13.321c-4.928,-6.825 6.284,-32.661 -12.176,-32.661c-18.46,0 -21.901,29.701 -21.901,29.701c0,0 6.73,57.333 62.014,56.344c55.285,-0.99 81.512,-43.73 73.89,-86.045c-7.622,-42.316 -48.689,-87.281 -120.763,-78.195c-72.074,9.086 -101.501,81.91 -88.53,159.734c12.971,77.825 106.204,122.917 179.509,106.694c73.306,-16.223 146.317,-69.293 146.317,-203.846c0,-134.5541 -116.533,-215.4332 -255.488,-202.10387c-138.9551,13.32927 -225.212,134.81287 -219.6908,280.77787c5.5212,145.965 144.0248,225.462 261.1438,229.559c117.119,4.098 188.918,-63.699 188.918,-63.699c0,0 16.147,-14.399 9.816,-25.643c-6.33,-11.244 -22.203,2.76 -22.203,2.76z" clip-rule="evenodd" fill-rule="evenodd"/>
 </g>
</svg>