<svg width="1000" height="1000" xmlns="http://www.w3.org/2000/svg" fill="none">

 <g>
  <title>Layer 1</title>
  <rect id="svg_1" fill="#5695A3" height="100%" width="100%"/>
  <path id="svg_2" fill="#fff" d="m244.05148,500.31199c-0.06811,-0.116 -0.06815,-0.26 -0.00009,-0.377l128.74398,-219.9657c0.067,-0.1141 0.19,-0.1843 0.322,-0.1843l255.177,0c0.133,0 0.256,0.0708 0.323,0.1859l127.332,219.9661c0.067,0.115 0.067,0.258 0,0.373l-127.332,219.719c-0.067,0.115 -0.19,0.186 -0.323,0.186l-255.177,0c-0.132,0 -0.255,-0.07 -0.322,-0.184l-128.74389,-219.719zm374.56589,-0.312c0,65.488 -53.089,118.577 -118.577,118.577c-65.488,0 -118.577,-53.089 -118.577,-118.577c0,-65.489 53.089,-118.577 118.577,-118.577c65.488,0 118.577,53.088 118.577,118.577z" clip-rule="evenodd" fill-rule="evenodd"/>
 </g>
</svg>