<svg width="1000" height="1000" xmlns="http://www.w3.org/2000/svg" fill="none">

 <g>
  <title>Layer 1</title>
  <rect id="svg_1" fill="#539DDF" height="100%" width="100%"/>
  <path id="svg_2" fill="#fff" d="m666.086,590.52649c0,91.382 -74.359,165.462 -166.086,165.462c-91.727,0 -166.086,-74.08 -166.086,-165.462c0,-88.876 157.102,-332.9671 165.718,-346.28719c0.197,-0.30375 0.54,-0.30375 0.736,0c8.616,13.32009 165.718,257.41119 165.718,346.28719zm-193.772,112.416c-84.28,-18.441 -69.858,-111.801 -69.858,-111.801c0,0 23.014,56.358 78.863,74.614c55.848,18.255 123.34,-8.519 123.34,-8.519c0,0 -48.065,64.146 -132.345,45.706z" clip-rule="evenodd" fill-rule="evenodd"/>
 </g>
</svg>